# xmcd
#
# Track frame offsets: 
#        150
#        27027
#        49870
#        94621
#        114598
#        142929
#        152851
#        166466
#        179111
#        192223
#
# Disc length: 2903 seconds
#
# Revision: 1
# Processed by: cddbd v1.5.2PL0 Copyright (c) Steve Scherf et al.
# Submitted via: ExactAudioCopy v1.0b3
#
DISCID=820b550a
DTITLE=Bledowski-Winder Band - 3.Numer
DYEAR=2005
DGENRE=Blues rock
TTITLE0=Jacky 2004
TTITLE1=Skoczus
TTITLE2=3. Numer
TTITLE3=Basia Mojo
TTITLE4=Rumbaloon
TTITLE5=Dziesiec Pieknych Lat
TTITLE6=Lazy K. Blues
TTITLE7=Duell
TTITLE8=Fankus
TTITLE9=Kawie
EXTD=
EXTT0=
EXTT1=
EXTT2=
EXTT3=
EXTT4=
EXTT5=
EXTT6=
EXTT7=
EXTT8=
EXTT9=
PLAYORDER=
